<svg width="13" height="13" viewBox="0 0 13 13" fill="none" xmlns="http://www.w3.org/2000/svg">
<path d="M12 1H8" stroke="#B07DFB" stroke-linecap="round" stroke-linejoin="round"/>
<path d="M12 1V5" stroke="#B07DFB" stroke-linecap="round" stroke-linejoin="round"/>
<path d="M6.6665 6.33333L11.3332 1.66667" stroke="#B07DFB" stroke-linecap="round"/>
<path d="M5.99992 2.33333C5.07694 2.33333 4.17469 2.60703 3.40726 3.11981C2.63983 3.63259 2.04169 4.36142 1.68848 5.21414C1.33527 6.06686 1.24286 7.00518 1.42292 7.91042C1.60299 8.81567 2.04744 9.64719 2.70009 10.2998C3.35273 10.9525 4.18425 11.3969 5.0895 11.577C5.99474 11.7571 6.93305 11.6646 7.78578 11.3114C8.6385 10.9582 9.36733 10.3601 9.88011 9.59266C10.3929 8.82523 10.6666 7.92298 10.6666 7" stroke="#B07DFB" stroke-linecap="round"/>
</svg>
