<svg width="14" height="21" viewBox="0 0 14 21" fill="none" xmlns="http://www.w3.org/2000/svg">
<path fill-rule="evenodd" clip-rule="evenodd" d="M11.3817 2.72821C10.1741 1.58231 8.5429 0.928554 6.83503 0.906006H6.77036C5.06236 0.928226 3.4309 1.58177 2.22305 2.72759C1.0152 3.87342 0.32628 5.4211 0.302857 7.04139C0.281838 8.19177 0.622998 9.32222 1.28268 10.2885L6.37261 20.0791H7.2344L12.3227 10.2885C12.984 9.32222 13.3252 8.19177 13.3025 7.04139C13.2788 5.42123 12.5896 3.87379 11.3817 2.72821ZM6.68143 2.43985L6.81401 2.45519L6.93366 2.43985C8.20382 2.49233 9.40454 3.00441 10.289 3.87082C11.1734 4.73723 11.6744 5.89214 11.6889 7.09814C11.7013 7.95407 11.4378 8.79318 10.9338 9.50321L10.9015 9.55536L10.874 9.60905L6.80269 17.4393L2.73302 9.61672L2.70553 9.5569L2.6732 9.50475C2.16919 8.79471 1.90575 7.95561 1.91812 7.09968C1.9319 5.89228 2.43345 4.73591 3.31938 3.86893C4.20531 3.00196 5.4081 2.49045 6.67981 2.43985H6.68143ZM7.67096 5.76676C7.4944 5.65477 7.29633 5.57686 7.08803 5.53749C6.87974 5.49811 6.66531 5.49804 6.45699 5.53728C6.24867 5.57652 6.05054 5.6543 5.87391 5.76618C5.69727 5.87806 5.5456 6.02185 5.42754 6.18934C5.30949 6.35683 5.22736 6.54473 5.18585 6.74233C5.14435 6.93992 5.14428 7.14334 5.18564 7.34096C5.227 7.53859 5.30899 7.72654 5.42693 7.89411C5.54487 8.06167 5.69644 8.20556 5.87299 8.31755C6.22956 8.54373 6.66623 8.62628 7.08695 8.54703C7.50768 8.46778 7.87798 8.23323 8.11641 7.89498C8.35483 7.55672 8.44184 7.14247 8.35831 6.74335C8.27477 6.34423 8.02752 5.99295 7.67096 5.76676ZM4.97563 4.4906C5.32842 4.25535 5.72724 4.0894 6.14864 4.00254C6.57004 3.91568 7.0055 3.90964 7.42939 3.9848C7.85328 4.05996 8.25705 4.21479 8.61693 4.44017C8.9768 4.66556 9.28553 4.95696 9.52493 5.29721C9.76434 5.63747 9.92958 6.01971 10.011 6.42145C10.0923 6.82319 10.0882 7.23631 9.99872 7.6365C9.90929 8.0367 9.73638 8.41588 9.49017 8.75174C9.24397 9.08759 8.92944 9.37335 8.56509 9.59218C7.85189 10.0205 6.99039 10.1673 6.16462 10.0013C5.33885 9.83519 4.61426 9.36938 4.14564 8.70334C3.67701 8.0373 3.5015 7.22383 3.65658 6.43668C3.81166 5.64953 4.28505 4.95111 4.97563 4.4906Z" fill="#F5F5F5"/>
</svg>
