<svg width="30" height="30" viewBox="0 0 30 30" fill="none" xmlns="http://www.w3.org/2000/svg">
<rect width="30" height="30" rx="2" fill="#212025"/>
<path fill-rule="evenodd" clip-rule="evenodd" d="M15.026 5C9.517 5 5.052 9.465 5.052 14.974C5.052 19.38 7.909 23.119 11.873 24.439C12.372 24.529 12.552 24.222 12.552 23.958C12.552 23.721 12.544 23.093 12.541 22.262C9.766 22.864 9.18 20.924 9.18 20.924C8.728 19.772 8.073 19.465 8.073 19.465C7.168 18.846 8.142 18.86 8.142 18.86C9.144 18.93 9.669 19.888 9.669 19.888C10.559 21.412 12.005 20.972 12.571 20.717C12.662 20.072 12.922 19.632 13.206 19.383C10.992 19.132 8.664 18.276 8.664 14.453C8.664 13.366 9.053 12.474 9.688 11.778C9.587 11.525 9.242 10.51 9.787 9.138C9.787 9.138 10.624 8.869 12.529 10.159C13.3426 9.93767 14.1818 9.8247 15.025 9.823C15.8682 9.82437 16.7075 9.93735 17.521 10.159C19.427 8.868 20.263 9.138 20.263 9.138C20.808 10.51 20.466 11.525 20.362 11.778C21.002 12.474 21.386 13.365 21.386 14.453C21.386 18.286 19.056 19.128 16.834 19.375C17.189 19.683 17.509 20.291 17.509 21.221C17.509 22.555 17.497 23.631 17.497 23.958C17.497 24.225 17.675 24.535 18.184 24.437C22.146 23.115 25 19.379 25 14.974C25 9.465 20.535 5 15.026 5Z" fill="#B07DFB"/>
</svg>
