<svg width="30" height="30" viewBox="0 0 30 30" fill="none" xmlns="http://www.w3.org/2000/svg">
<rect width="30" height="30" rx="2" fill="#212025"/>
<path d="M7.983 10.197C9.1914 10.197 10.171 9.21744 10.171 8.00904C10.171 6.80065 9.1914 5.82104 7.983 5.82104C6.7746 5.82104 5.795 6.80065 5.795 8.00904C5.795 9.21744 6.7746 10.197 7.983 10.197Z" fill="#B07DFB"/>
<path d="M12.237 11.8549V23.9939H16.006V17.9909C16.006 16.4069 16.304 14.8729 18.268 14.8729C20.205 14.8729 20.229 16.6839 20.229 18.0909V23.9949H24V17.3379C24 14.0679 23.296 11.5549 19.474 11.5549C17.639 11.5549 16.409 12.5619 15.906 13.5149H15.855V11.8549H12.237ZM6.095 11.8549H9.87V23.9939H6.095V11.8549Z" fill="#B07DFB"/>
</svg>
