<svg width="70" height="70" viewBox="0 0 70 70" fill="none" xmlns="http://www.w3.org/2000/svg">
<g clip-path="url(#clip0)">
<path d="M36.9 10C20.6629 10 7.5 23.1629 7.5 39.4C7.5 55.6373 20.6629 68.8 36.9 68.8C53.1373 68.8 66.3 55.6373 66.3 39.4C66.3 23.1629 53.1373 10 36.9 10ZM36.9 12.9898C51.4858 12.9898 63.3102 24.8142 63.3102 39.4C63.3102 53.9858 51.4858 65.8102 36.9 65.8102C22.3142 65.8102 10.4898 53.9858 10.4898 39.4C10.4898 24.8142 22.3142 12.9898 36.9 12.9898Z" fill="#626262"/>
<path d="M37.2321 18.4711C48.7909 18.4711 58.161 27.8414 58.161 39.4C58.161 50.9585 48.7909 60.3286 37.2319 60.3286C25.6733 60.3286 16.3032 50.9585 16.3032 39.4C16.3032 36.5753 16.863 33.881 17.8775 31.4222C19.3588 33.4396 21.7477 34.749 24.4422 34.749C28.9372 34.749 32.5812 31.105 32.5812 26.61C32.5812 23.9154 31.2717 21.5266 29.2544 20.0453C31.7132 19.0308 34.4072 18.4711 37.2321 18.4711Z" fill="#626262"/>
</g>
<defs>
<clipPath id="clip0">
<rect width="58.8" height="58.8" fill="white" transform="translate(7.5 10)"/>
</clipPath>
</defs>
</svg>
