<svg width="71" height="70" viewBox="0 0 71 70" fill="none" xmlns="http://www.w3.org/2000/svg">
<g clip-path="url(#clip0)">
<path d="M61.5374 5.83337H10.2022C8.14048 5.83337 6.46704 7.50681 6.46704 9.56853V60.8982C6.46704 62.9599 8.14048 64.6334 10.2022 64.6334H61.5319C63.5936 64.6334 65.267 62.9599 65.267 60.9037V9.56853C65.267 7.50681 63.5936 5.83337 61.5374 5.83337ZM38.667 50.8904C38.667 56.4849 35.3858 59.0334 30.5952 59.0334C26.2639 59.0334 23.1413 56.1295 21.867 53.4334L26.2694 50.7701C27.117 52.274 28.4077 53.4334 30.267 53.4334C32.0444 53.4334 33.067 52.7388 33.067 50.0373V32.4334H38.667V50.8904ZM50.8131 59.0334C45.853 59.0334 43.0366 56.5341 41.467 53.4334L45.667 50.6334C46.81 52.5037 48.0569 54.292 50.6928 54.292C52.9077 54.292 54.067 53.1873 54.067 51.656C54.067 49.8295 52.8639 49.1787 50.4303 48.1123L49.0959 47.5381C45.2405 45.8974 42.6756 43.8412 42.6756 39.4881C42.6756 35.4849 45.7327 32.4334 50.5014 32.4334C53.8975 32.4334 56.3366 33.6146 58.0975 36.7099L53.9413 39.3842C53.0225 37.7381 52.0381 37.0927 50.5014 37.0927C48.9374 37.0927 47.9475 38.0881 47.9475 39.3842C47.9475 40.9865 48.9374 41.6318 51.2288 42.6271L52.5631 43.2013C57.1077 45.1427 59.667 47.1279 59.667 51.5904C59.667 56.3974 55.8881 59.0334 50.8131 59.0334Z" fill="#626262"/>
</g>
<defs>
<clipPath id="clip0">
<rect width="70" height="70" fill="white" transform="translate(0.5)"/>
</clipPath>
</defs>
</svg>
