<svg width="97" height="83" viewBox="0 0 97 83" fill="none" xmlns="http://www.w3.org/2000/svg">
<g clip-path="url(#clip0)">
<path d="M48.8854 80.8897C74.0472 80.8897 94.4449 63.2544 94.4449 41.5C94.4449 19.7456 74.0472 2.11004 48.8854 2.11004C23.7237 2.11004 3.32629 19.7456 3.32629 41.5C3.32629 63.2544 23.7237 80.8897 48.8854 80.8897Z" fill="white"/>
<path d="M48.8854 0C22.3759 0 0.885406 18.5803 0.885406 41.5C0.885406 64.42 22.3759 83 48.8854 83C75.3953 83 96.8854 64.42 96.8854 41.5C96.8854 18.5803 75.3953 0 48.8854 0ZM48.8854 4.22036C72.699 4.22036 92.004 20.9111 92.004 41.5C92.004 62.0889 72.699 78.7796 48.8854 78.7796C25.0718 78.7796 5.76678 62.0889 5.76678 41.5C5.76678 20.9111 25.0718 4.22036 48.8854 4.22036Z" fill="#4000BF"/>
<path d="M49.4277 11.9575C68.2992 11.9575 83.5973 25.1843 83.5973 41.5C83.5973 57.8156 68.2992 71.0421 49.4273 71.0421C30.5562 71.0421 15.258 57.8156 15.258 41.5C15.258 37.5127 16.1719 33.7096 17.8283 30.2389C20.2467 33.0865 24.147 34.9349 28.5462 34.9349C35.8849 34.9349 41.8343 29.7911 41.8343 23.4462C41.8343 19.6424 39.6964 16.2706 36.4028 14.1797C40.4172 12.7476 44.8155 11.9575 49.4277 11.9575Z" fill="url(#paint0_linear)"/>
</g>
<defs>
<linearGradient id="paint0_linear" x1="49.4277" y1="71.0421" x2="49.4277" y2="11.9575" gradientUnits="userSpaceOnUse">
<stop stop-color="#7400E1"/>
<stop offset="1" stop-color="#4000BF"/>
</linearGradient>
<clipPath id="clip0">
<rect width="96" height="83" fill="white" transform="translate(0.885406)"/>
</clipPath>
</defs>
</svg>
