<svg width="135" height="70" viewBox="0 0 135 70" fill="none" xmlns="http://www.w3.org/2000/svg">
<g clip-path="url(#clip0)">
<path d="M89.4976 0.625C88.9116 0.625 88.375 1.05737 88.375 1.65894V20.5518L83.7244 18.0542C83.4333 17.8961 83.1052 17.8192 82.7768 17.8192C82.4484 17.8192 82.1203 17.8961 81.8292 18.0542L70.6546 24.0564C70.0724 24.3658 69.7143 24.9383 69.7143 25.5536V37.5714C69.7143 38.1902 70.0724 38.7592 70.6546 39.0686L81.8292 45.0708C82.1203 45.2289 82.4484 45.3058 82.7768 45.3058C83.1052 45.3058 83.4333 45.2289 83.7244 45.0708L94.899 39.0686C95.4812 38.7592 95.8393 38.1867 95.8393 37.5714V31.5625V25.5536V4.85474C95.8393 4.24286 95.4846 3.68035 94.9135 3.37097L90.0516 0.765991C89.8687 0.669741 89.6842 0.625 89.4976 0.625ZM52.9196 17.8192C52.5921 17.8192 52.265 17.8978 51.972 18.0542L40.7975 24.0564C40.2153 24.3658 39.8571 24.9383 39.8571 25.5536V37.5714C39.8571 38.1902 40.2153 38.7592 40.7975 39.0686L51.972 45.0708C52.558 45.3836 53.2813 45.3836 53.8673 45.0708L65.0418 39.0686C65.624 38.7592 65.9821 38.1867 65.9821 37.5714V25.5536C65.9821 24.9348 65.624 24.3658 65.0418 24.0564L53.8673 18.0542C53.5743 17.8978 53.2471 17.8192 52.9196 17.8192ZM112.634 17.8192C112.306 17.8192 111.977 17.8961 111.686 18.0542L100.512 24.0564C99.9295 24.3658 99.5714 24.9383 99.5714 25.5536V37.5714C99.5714 38.1902 99.9295 38.7592 100.512 39.0686L111.351 45.1044C111.933 45.4309 112.664 45.434 113.254 45.1178L118.582 42.2644C119.134 41.9722 119.138 41.2341 118.582 40.9351L107.036 34.671V28.501L112.634 25.4999L118.232 28.501V32.7979C118.232 33.3719 118.756 33.4603 119.107 33.2678C120.518 32.5047 124.771 30.2332 124.771 30.2332C125.342 29.9272 125.696 29.3613 125.696 28.7494V25.5536C125.696 24.9348 125.338 24.3658 124.756 24.0564L113.582 18.0542C113.287 17.8961 112.962 17.8192 112.634 17.8192ZM23.0625 17.8259C22.7341 17.8259 22.406 17.9028 22.1149 18.0609L10.9403 24.0564C10.3581 24.3692 10 24.9416 10 25.5603V40.9015C10 41.6509 10.8801 42.1154 11.5818 41.7407L16.5385 39.082C17.1096 38.7727 17.4643 38.2101 17.4643 37.5983V28.5144L23.0625 25.5066L28.6607 28.5144V37.5983C28.6607 38.2101 29.0154 38.7727 29.5865 39.082L34.5432 41.7407C35.2449 42.1188 36.125 41.6509 36.125 40.9015V25.5603C36.125 24.9416 35.7669 24.3692 35.1847 24.0564L24.0101 18.0609C23.719 17.9028 23.3909 17.8259 23.0625 17.8259ZM82.7768 25.4999L88.375 28.5077V31.5625V34.6173L82.7768 37.6251L77.1786 34.6173V28.5077L82.7768 25.4999ZM112.634 28.1384L109.434 29.8572V33.288L112.634 35L115.834 33.288V29.8572L112.634 28.1384ZM67.4983 41.8683C67.1144 41.8683 66.7262 41.9548 66.3903 42.1301L55.8937 47.7161C55.2033 48.0667 54.7857 48.7567 54.7857 49.4751V60.6335C54.7857 61.352 55.2219 62.0282 55.8937 62.3926L58.6564 63.8428C59.9813 64.4443 60.4683 64.447 61.0691 64.447C63.0472 64.447 64.1744 63.3575 64.1744 61.4325V50.4083C64.1744 50.2399 64.0325 50.1196 63.8682 50.1196H62.5416C62.3587 50.1196 62.2281 50.2571 62.2281 50.4083V61.4325C62.2281 62.2678 61.2698 63.1244 59.706 62.406L56.834 60.882C56.7407 60.8304 56.6737 60.7265 56.6737 60.6268V49.4684C56.6737 49.3687 56.7258 49.2514 56.834 49.1998L67.3307 43.6273C67.4426 43.5758 67.5691 43.5758 67.6587 43.6273L78.1626 49.1998C78.2709 49.2514 78.323 49.3515 78.323 49.4684V60.6268C78.323 60.7437 78.2522 60.8438 78.1626 60.8954L67.6587 66.488C67.5654 66.5396 67.4202 66.5396 67.3307 66.488L64.6482 65.0177C64.5773 64.9833 64.464 64.9632 64.3931 64.9976C63.6504 65.3997 63.5017 65.4524 62.8113 65.6689C62.6284 65.7205 62.3798 65.8238 62.906 66.0919L66.3903 67.9987C66.7374 68.1671 67.1176 68.2672 67.4983 68.2672C67.8977 68.2672 68.2857 68.1674 68.5917 67.9852L79.0884 62.3926C79.7788 62.042 80.1964 61.352 80.1964 60.6335V49.4751C80.1964 48.7567 79.7602 48.0839 79.0884 47.7161L68.5917 42.1301C68.2652 41.9548 67.8823 41.8683 67.4983 41.8683ZM83.8702 47.0178C82.7991 47.0178 81.8583 47.8155 81.8583 48.8708C81.8583 49.8918 82.7617 50.7306 83.8702 50.7306C84.9786 50.7306 85.882 49.8918 85.882 48.8708C85.882 47.8155 84.96 47.0006 83.8702 47.0178ZM83.8483 47.3132C84.7963 47.3132 85.5613 48.0012 85.5613 48.8708C85.5613 49.7234 84.7925 50.428 83.8483 50.4486C82.919 50.4486 82.1645 49.7405 82.1645 48.8708C82.1645 48.0012 82.9227 47.3132 83.8483 47.3132ZM83.1121 47.8168V49.9048H83.5422V49.0723H83.9431C84.1073 49.0723 84.1463 49.1367 84.1836 49.2535C84.1836 49.2707 84.2524 49.8118 84.2711 49.9115H84.7376C84.6854 49.8118 84.6469 49.5261 84.6283 49.3542C84.576 49.0861 84.559 48.9015 84.2492 48.8843C84.4135 48.8327 84.6866 48.7523 84.6866 48.3673C84.6866 47.8139 84.1645 47.8168 83.8921 47.8168H83.1121ZM83.5422 48.1525H83.9066C84.0186 48.1525 84.2347 48.1491 84.2347 48.4344C84.2347 48.5513 84.1796 48.74 83.8848 48.7366H83.5422V48.1525ZM70.312 49.8578C67.3151 49.8578 65.5375 51.0343 65.5375 52.973C65.5375 55.0974 67.3181 55.6657 70.1881 55.9338C73.6217 56.2501 73.8911 56.7049 73.8911 57.3236C73.8911 58.4099 72.9444 58.8611 70.7275 58.8611C67.9471 58.8611 67.3354 58.2262 67.1339 56.9543C67.1152 56.8203 66.9846 56.7194 66.8204 56.7194H65.4573C65.2931 56.7194 65.1512 56.8396 65.1512 57.0081C65.1512 58.6306 66.1114 60.5731 70.7056 60.5731C74.0758 60.5697 75.9831 59.3671 75.9831 57.2565C75.9831 55.1665 74.4552 54.6106 71.2232 54.2084C67.9538 53.8062 67.6295 53.6039 67.6295 52.8992C67.6295 52.3148 67.8973 51.5497 70.312 51.5497C72.4729 51.5497 73.2784 51.985 73.6068 53.3221C73.6441 53.4562 73.7455 53.537 73.8911 53.537H75.2542C75.3438 53.537 75.4206 53.5045 75.4729 53.4564C75.5289 53.3911 75.5644 53.3241 75.5458 53.2416C75.3293 50.9316 73.6747 49.8578 70.312 49.8578Z" fill="#626262"/>
</g>
<defs>
<clipPath id="clip0">
<rect width="113.4" height="58.8" fill="white" transform="translate(11 6)"/>
</clipPath>
</defs>
</svg>
