<svg id="Layer_5" enable-background="new 0 0 64 64" height="512" viewBox="0 0 64 64" width="512" xmlns="http://www.w3.org/2000/svg" xmlns:xlink="http://www.w3.org/1999/xlink"><linearGradient id="SVGID_1_" gradientUnits="userSpaceOnUse" x1="32" x2="32" y1="63" y2="1"><stop offset="0" stop-color="#9f2fff"/><stop offset="1" stop-color="#b07dfb"/></linearGradient><path d="m39 6c0-2.757-2.243-5-5-5h-28c-2.757 0-5 2.243-5 5v52c0 2.757 2.243 5 5 5h28c2.757 0 5-2.243 5-5v-11h24v-34h-24zm-2 0v3h-13.026c.635-.838 1.026-1.87 1.026-3v-3h9c1.654 0 3 1.346 3 3zm-20 0v-3h6v3c0 1.654-1.346 3-3 3s-3-1.346-3-3zm-11-3h9v3c0 1.13.391 2.162 1.026 3h-13.026v-3c0-1.654 1.346-3 3-3zm28 58h-28c-1.654 0-3-1.346-3-3v-7h34v7c0 1.654-1.346 3-3 3zm3-12h-34v-38h34v2h-12v34h12zm24-4h-34v-30h34zm-38 8h-6c-1.103 0-2 .897-2 2v2c0 1.103.897 2 2 2h6c1.103 0 2-.897 2-2v-2c0-1.103-.897-2-2-2zm-6 4v-2h6l.002 2zm-8-4h-2c-1.103 0-2 .897-2 2v2c0 1.103.897 2 2 2h2c1.103 0 2-.897 2-2v-2c0-1.103-.897-2-2-2zm-2 4v-2h2l.002 2zm26-4h-2c-1.103 0-2 .897-2 2v2c0 1.103.897 2 2 2h2c1.103 0 2-.897 2-2v-2c0-1.103-.897-2-2-2zm-2 4v-2h2l.002 2zm2-51c0-.552.448-1 1-1s1 .448 1 1-.448 1-1 1-1-.448-1-1zm-12 0c0 .552-.448 1-1 1s-1-.448-1-1 .448-1 1-1 1 .448 1 1zm-7 7c-4.963 0-9 4.037-9 9s4.037 9 9 9 9-4.037 9-9-4.037-9-9-9zm-4.649 14.218c1.134-1.401 2.821-2.218 4.649-2.218s3.515.817 4.649 2.218c-1.237 1.104-2.864 1.782-4.649 1.782s-3.412-.678-4.649-1.782zm2.649-6.218c0-1.103.897-2 2-2s2 .897 2 2-.897 2-2 2-2-.897-2-2zm7.945 4.677c-.815-.916-1.808-1.631-2.923-2.086.601-.7.978-1.598.978-2.591 0-2.206-1.794-4-4-4s-4 1.794-4 4c0 .993.377 1.891.978 2.591-1.115.455-2.108 1.17-2.923 2.086-.664-1.07-1.055-2.327-1.055-3.677 0-3.859 3.141-7 7-7s7 3.141 7 7c0 1.35-.391 2.607-1.055 3.677zm1.055 19.323h2v2h-2zm-16 0h14v2h-14zm0-4h18v2h-18zm4-4h14v2h-14zm-2 2h-2v-2h2zm-2-6h18v2h-18zm36-16h-12v12h12zm-2 10h-8v-8h8zm2 4h-12v12h12zm-2 10h-8v-8h8zm20-22h-16v-2h16zm-12 2h12v2h-12zm-2 2h-2v-2h2zm12 2h2v2h-2zm-2 2h-12v-2h12zm4 6h-16v-2h16zm-12 2h12v2h-12zm-2 2h-2v-2h2zm12 2h2v2h-2zm-2 2h-12v-2h12z" fill="url(#SVGID_1_)"/></svg>