<svg id="Layer_5" enable-background="new 0 0 64 64" height="512" viewBox="0 0 64 64" width="512" xmlns="http://www.w3.org/2000/svg" xmlns:xlink="http://www.w3.org/1999/xlink"><linearGradient id="SVGID_1_" gradientUnits="userSpaceOnUse" x1="32" x2="32" y1="63" y2="1"><stop offset="0" stop-color="#9f2fff"/><stop offset="1" stop-color="#0bb1d3"/></linearGradient><path d="m60.728 37.651-1.728-.431v-.001l-4-1-2-.5-2-.5v-1.811l1.119-1.145c.234-.086.47-.182.704-.285l1.748.836 5.244-5.242-.836-1.749c.069-.155.134-.313.196-.471l1.825-.644v-7.416l-1.826-.644c-.062-.158-.127-.315-.196-.471l.836-1.749-5.244-5.241-1.748.836c-.157-.069-.314-.135-.471-.196l-.643-1.827h-7.415l-.645 1.826c-.157.062-.314.127-.471.196l-.177-.084v-3.938c0-2.757-2.243-5-5-5h-28c-2.757 0-5 2.243-5 5v27h-1c-1.654 0-3 1.346-3 3v4c0 1.654 1.346 3 3 3h1v11c0 2.757 2.243 5 5 5h28c2.222 0 4.089-1.468 4.738-3.477l2.082 2.602-2.438 4.875h19.236l-2.437-4.875 2.285-2.857c.989-1.236 1.534-2.789 1.534-4.372v-10.334c0-1.379-.935-2.577-2.272-2.911zm-17.728-5.589.177-.085c.234.104.47.199.704.285l1.119 1.146v6.148c-.591-.344-1.268-.556-2-.556zm7.965-8.407c.654-.728 1.035-1.658 1.035-2.655 0-2.206-1.794-4-4-4s-4 1.794-4 4c0 .998.381 1.927 1.035 2.656-.014.114-.035.226-.035.344v2.174c-1.81-1.059-3-3.018-3-5.174 0-3.309 2.691-6 6-6s6 2.691 6 6c0 2.156-1.19 4.115-3 5.174v-2.174c0-.118-.022-.23-.035-.345zm-4.836-1.981c-.077-.215-.129-.439-.129-.674 0-1.103.897-2 2-2s2 .897 2 2c0 .235-.052.459-.129.674-.515-.415-1.16-.674-1.871-.674s-1.356.259-1.871.674zm-2.517-9.649c.381-.187.766-.347 1.146-.477l.458-.156.492-1.392h4.585l.491 1.393.458.156c.38.13.765.29 1.146.477l.435.214 1.334-.639 3.242 3.242-.638 1.335.214.436c.185.375.345.761.477 1.146l.157.458 1.391.49v4.584l-1.392.491-.157.458c-.132.385-.292.771-.477 1.146l-.214.436.638 1.335-3.242 3.242-1.334-.639-.435.214c-.381.187-.766.347-1.146.477l-.226.077-.015.016v-2.156c2.971-1.212 5-4.135 5-7.389 0-4.411-3.589-8-8-8s-8 3.589-8 8c0 3.255 2.029 6.177 5 7.389v2.156l-.017-.017-.226-.077c-.38-.13-.765-.29-1.146-.477l-.435-.214-1.334.639-3.242-3.242.638-1.335-.214-.436c-.185-.375-.345-.761-.477-1.146l-.157-.458-1.39-.49v-4.584l1.392-.491.157-.458c.132-.385.292-.771.477-1.146l.214-.436-.638-1.335 3.242-3.242 1.334.639zm-22.612 22.975v2h-12v-2zm2 .618 3.658 1.829c.211.106.342.318.342.553s-.131.447-.342.553l-3.658 1.829zm-14 3.382h12v2h-12zm2 4h11.236l5.317-2.658c.892-.447 1.447-1.344 1.447-2.342s-.555-1.895-1.447-2.342l-5.317-2.658h-11.236v-22h26v2.615l-.814.814.836 1.749c-.069.155-.134.313-.196.471l-1.826.643v7.416l1.826.644c.062.158.127.315.196.471l-.836 1.749.814.813v16.615h-26zm8-40h10v1c0 .552-.449 1-1 1h-8c-.551 0-1-.448-1-1zm-12 3c0-1.654 1.346-3 3-3h7v1c0 1.654 1.346 3 3 3h8c1.654 0 3-1.346 3-3v-1h7c1.654 0 3 1.346 3 3v3.616l-2 1.999v-.615c0-1.103-.897-2-2-2h-26c-1.103 0-2 .897-2 2v22h-2zm-4 34v-4c0-.552.449-1 1-1h3v6h-3c-.551 0-1-.448-1-1zm38 14c0 1.654-1.346 3-3 3h-28c-1.654 0-3-1.346-3-3v-11h2v2c0 1.103.897 2 2 2h26c1.103 0 2-.897 2-2v-14.616l2 1.999v8.617 9.896zm4.618 7 1-2h10.764l1 2zm15.382-10.104c0 1.131-.389 2.24-1.096 3.123l-2.385 2.981h-11.038l-2.385-2.981c-.707-.883-1.096-1.993-1.096-3.123v-9.896c1.103 0 2 .897 2 2v5h2v-5-19c0-.552.449-1 1-1s1 .448 1 1v10.719 13.281h2v-10.719l2 .5v10.219h2v-9.719l2 .5v9.219h2v-8.72l1.242.311c.446.112.758.511.758.971zm-34-1.896h-6c-1.103 0-2 .897-2 2 0 2.206 1.794 4 4 4h2c2.206 0 4-1.794 4-4 0-1.103-.897-2-2-2zm-2 4h-2c-1.103 0-2-.897-2-2h6c0 1.103-.897 2-2 2zm12-4h-2c-1.103 0-2 .897-2 2v1c0 1.654 1.346 3 3 3s3-1.346 3-3v-1c0-1.103-.897-2-2-2zm0 3c0 .552-.449 1-1 1s-1-.448-1-1v-1h2zm-24-3h-2c-1.103 0-2 .897-2 2v1c0 1.654 1.346 3 3 3s3-1.346 3-3v-1c0-1.103-.897-2-2-2zm0 3c0 .552-.449 1-1 1s-1-.448-1-1v-1h2zm20-39h-20v10h20zm-2 8h-16v-6h16zm2 6h-20v-2h20zm0 4h-20v-2h20zm-2 6h4v2h-4zm0 4h4v2h-4zm0-8h4v2h-4z" fill="url(#SVGID_1_)"/></svg>