<svg width="27" height="27" viewBox="0 0 27 27" fill="none" xmlns="http://www.w3.org/2000/svg">
<path d="M22.7285 12.2687H20.5928C20.4715 12.2687 20.3555 12.3214 20.2737 12.4137L14.502 19.0661V4.21875C14.502 4.10273 14.407 4.00781 14.291 4.00781H12.709C12.593 4.00781 12.498 4.10273 12.498 4.21875V19.0661L6.72627 12.4137C6.64717 12.3214 6.53115 12.2687 6.40723 12.2687H4.27148C4.09219 12.2687 3.99463 12.4822 4.11328 12.6167L12.8646 22.7021C12.9437 22.7934 13.0415 22.8666 13.1513 22.9168C13.2612 22.9669 13.3805 22.9929 13.5013 22.9929C13.6221 22.9929 13.7415 22.9669 13.8513 22.9168C13.9612 22.8666 14.059 22.7934 14.1381 22.7021L22.8867 12.6167C23.0054 12.4796 22.9078 12.2687 22.7285 12.2687Z" fill="#F5F5F5"/>
</svg>
