<svg width="71" height="70" viewBox="0 0 71 70" fill="none" xmlns="http://www.w3.org/2000/svg">
<g clip-path="url(#clip0)">
<path d="M6.13635 13.1685V57.6315C6.13635 61.1409 9.03244 63.9833 12.6081 63.9833H57.9099C61.4856 63.9833 64.3816 61.1409 64.3816 57.6315V13.1685C64.3816 9.6591 61.4856 6.81665 57.9099 6.81665H12.6081C9.03244 6.81665 6.13635 9.6591 6.13635 13.1685ZM40.6499 36.8323H33.7964V57.6315H28.2728V36.8323H21.5616V32.2241H40.6499V36.8323ZM41.7242 56.4437V50.8826C41.7242 50.8826 44.8177 53.1725 48.5324 53.1725C52.2472 53.1725 52.1016 50.7905 52.1016 50.4634C52.1016 47.0048 41.5818 47.0048 41.5818 39.3445C41.5818 28.9243 56.9101 33.0371 56.9101 33.0371L56.7192 37.9884C56.7192 37.9884 54.1499 36.3051 51.2441 36.3051C48.3415 36.3051 47.2931 37.6612 47.2931 39.1095C47.2931 42.8475 57.9099 42.4728 57.9099 49.9965C57.9099 61.5823 41.7242 56.4437 41.7242 56.4437Z" fill="#626262"/>
</g>
<defs>
<clipPath id="clip0">
<rect width="58.8" height="58.8" fill="white" transform="translate(6 6)"/>
</clipPath>
</defs>
</svg>
