<svg width="71" height="70" viewBox="0 0 71 70" fill="none" xmlns="http://www.w3.org/2000/svg">
<g clip-path="url(#clip0)">
<path d="M52.5691 12.3658C52.1122 12.3818 51.6565 12.5009 51.2484 12.7149C52.3127 13.2418 53.0635 14.2823 53.187 15.5171C53.2081 15.6653 53.2214 15.8004 53.2214 15.8662V62.9062C53.2214 64.301 52.406 65.4963 51.2323 66.069C51.6604 66.3031 52.1383 66.4342 52.6334 66.4342C53.0721 66.4342 53.486 66.3326 53.86 66.1609L53.8623 66.1655C55.7533 65.1871 65.2075 60.2913 65.5556 60.0926C66.6528 59.4634 67.3334 58.2881 67.3334 57.0262V21.7462C67.3334 20.5726 66.7522 19.4808 65.7784 18.8246C65.4021 18.5694 53.9059 12.6299 53.9059 12.6299L53.9036 12.6345C53.4849 12.4376 53.026 12.3498 52.5691 12.3658ZM49.6934 14.6902C49.3925 14.6902 49.0913 14.8049 48.862 15.0348C48.862 15.0348 42.1299 22.6054 34.6765 30.9797L43.4896 38.1896L50.8694 31.9742V15.8662C50.8694 15.5652 50.7542 15.2641 50.5249 15.0348C50.295 14.8049 49.9943 14.6902 49.6934 14.6902ZM20.2934 22.9222C20.11 22.9222 19.7688 22.9229 18.2423 23.6297C17.4015 24.0189 14.4731 25.5568 14.4731 25.5568C14.0851 25.7673 13.772 26.0968 13.5521 26.4778C13.6415 26.4637 13.7302 26.4502 13.8231 26.4502H13.8254C14.611 26.4502 15.0928 26.9985 15.2633 27.1761C15.2633 27.1761 48.4351 63.3108 48.862 63.7377C49.0913 63.967 49.3901 64.0822 49.6911 64.0822C49.9922 64.0822 50.2933 63.967 50.5226 63.7377C50.7519 63.5084 50.8694 63.2073 50.8694 62.9062V47.2301C50.8694 47.2301 22.0971 23.7143 21.8737 23.5332C21.4409 23.1404 20.8779 22.9222 20.2934 22.9222ZM13.4717 28.8022C13.3423 28.8022 13.2374 28.9083 13.2374 29.0388V50.9189C13.2374 51.0447 13.3401 51.1485 13.4671 51.1485C13.533 51.1485 13.5913 51.1186 13.6325 51.0727L20.2934 43.6791V35.8812L13.6394 28.8711C13.597 28.8288 13.5364 28.8022 13.4717 28.8022ZM25.296 41.52C25.296 41.52 15.1879 52.8685 15.0726 52.9837C14.7539 53.3024 14.3135 53.4982 13.8254 53.4982C13.7337 53.4982 13.6449 53.4871 13.5567 53.473C13.7942 53.8858 14.1426 54.226 14.5742 54.4354L14.5696 54.4423C15.5927 54.9621 18.9692 56.6775 19.4137 56.8586C19.6936 56.9703 19.9888 57.0262 20.2934 57.0262C20.7015 57.0262 21.1049 56.9208 21.4671 56.7139C21.4942 56.6986 31.4976 48.282 31.4976 48.282L25.296 41.52Z" fill="#626262"/>
</g>
<defs>
<clipPath id="clip0">
<rect width="58.8" height="58.8" fill="white" transform="translate(6 6)"/>
</clipPath>
</defs>
</svg>
