<svg width="56" height="70" viewBox="0 0 56 70" fill="none" xmlns="http://www.w3.org/2000/svg">
<g clip-path="url(#clip0)">
<path d="M28.9688 7.83752C23.3956 7.83752 18.8625 12.3706 18.8625 17.9438C18.8625 20.9902 20.2232 23.7193 22.3617 25.5737C19.1884 27.28 17.025 30.6326 17.025 34.4813C17.025 37.9002 18.7369 40.9204 21.3424 42.75C18.7369 44.5797 17.025 47.5999 17.025 51.0188C17.025 56.5919 21.5581 61.125 27.1313 61.125C32.7044 61.125 37.2375 56.5919 37.2375 51.0188V40.9125V28.05H43.6688C49.2419 28.05 53.775 23.5169 53.775 17.9438C53.775 12.3706 49.2419 7.83752 43.6688 7.83752H28.9688ZM28.9688 11.5125H43.6688C47.2151 11.5125 50.1 14.3974 50.1 17.9438C50.1 21.4901 47.2151 24.375 43.6688 24.375H37.2375H28.9688C25.4224 24.375 22.5375 21.4901 22.5375 17.9438C22.5375 14.3974 25.4224 11.5125 28.9688 11.5125ZM27.1313 28.05H28.9688H33.5625V40.9125H27.1313C23.5849 40.9125 20.7 38.0276 20.7 34.4813C20.7 30.9349 23.5849 28.05 27.1313 28.05ZM44.5875 28.05C42.6382 28.05 40.7687 28.8244 39.3903 30.2028C38.0119 31.5812 37.2375 33.4507 37.2375 35.4C37.2375 37.3494 38.0119 39.2189 39.3903 40.5973C40.7687 41.9757 42.6382 42.75 44.5875 42.75C46.5369 42.75 48.4064 41.9757 49.7848 40.5973C51.1632 39.2189 51.9375 37.3494 51.9375 35.4C51.9375 33.4507 51.1632 31.5812 49.7848 30.2028C48.4064 28.8244 46.5369 28.05 44.5875 28.05ZM27.1313 44.5875H33.5625V51.0188C33.5625 54.5651 30.6776 57.45 27.1313 57.45C23.5849 57.45 20.7 54.5651 20.7 51.0188C20.7 47.4724 23.5849 44.5875 27.1313 44.5875Z" fill="#626262"/>
</g>
<defs>
<clipPath id="clip0">
<rect width="58.8" height="58.8" fill="white" transform="translate(6 6)"/>
</clipPath>
</defs>
</svg>
