<svg width="30" height="30" viewBox="0 0 30 30" fill="none" xmlns="http://www.w3.org/2000/svg">
<rect width="30" height="30" rx="2" fill="#212025"/>
<path d="M14.999 10.377C13.7726 10.377 12.5965 10.8641 11.7293 11.7313C10.8622 12.5985 10.375 13.7746 10.375 15.001C10.375 16.2273 10.8622 17.4034 11.7293 18.2706C12.5965 19.1378 13.7726 19.625 14.999 19.625C16.2254 19.625 17.4015 19.1378 18.2687 18.2706C19.1358 17.4034 19.623 16.2273 19.623 15.001C19.623 13.7746 19.1358 12.5985 18.2687 11.7313C17.4015 10.8641 16.2254 10.377 14.999 10.377ZM14.999 18.004C14.2023 18.004 13.4382 17.6875 12.8749 17.1241C12.3115 16.5607 11.995 15.7967 11.995 15C11.995 14.2032 12.3115 13.4392 12.8749 12.8758C13.4382 12.3124 14.2023 11.996 14.999 11.996C15.7957 11.996 16.5598 12.3124 17.1231 12.8758C17.6865 13.4392 18.003 14.2032 18.003 15C18.003 15.7967 17.6865 16.5607 17.1231 17.1241C16.5598 17.6875 15.7957 18.004 14.999 18.004Z" fill="#B07DFB"/>
<path d="M19.806 11.2849C20.4014 11.2849 20.884 10.8023 20.884 10.2069C20.884 9.61154 20.4014 9.12891 19.806 9.12891C19.2106 9.12891 18.728 9.61154 18.728 10.2069C18.728 10.8023 19.2106 11.2849 19.806 11.2849Z" fill="#B07DFB"/>
<path d="M23.533 9.11088C23.3015 8.51306 22.9477 7.97017 22.4943 7.51694C22.041 7.06372 21.4979 6.71015 20.9 6.47888C20.2003 6.21624 19.4612 6.07422 18.714 6.05888C17.751 6.01688 17.446 6.00488 15.004 6.00488C12.562 6.00488 12.249 6.00488 11.294 6.05888C10.5474 6.07344 9.80877 6.21548 9.11001 6.47888C8.51195 6.70988 7.96878 7.06335 7.51535 7.51661C7.06192 7.96987 6.70824 8.51291 6.47701 9.11088C6.21432 9.8105 6.07263 10.5497 6.05801 11.2969C6.01501 12.2589 6.00201 12.5639 6.00201 15.0069C6.00201 17.4489 6.00201 17.7599 6.05801 18.7169C6.07301 19.4649 6.21401 20.2029 6.47701 20.9039C6.70889 21.5016 7.06291 22.0445 7.51645 22.4977C7.96999 22.9509 8.51308 23.3045 9.11101 23.5359C9.80845 23.8091 10.5474 23.9613 11.296 23.9859C12.259 24.0279 12.564 24.0409 15.006 24.0409C17.448 24.0409 17.761 24.0409 18.716 23.9859C19.4631 23.9707 20.2022 23.829 20.902 23.5669C21.4998 23.3351 22.0426 22.9812 22.496 22.5279C22.9493 22.0745 23.3032 21.5316 23.535 20.9339C23.798 20.2339 23.939 19.4959 23.954 18.7479C23.997 17.7859 24.01 17.4809 24.01 15.0379C24.01 12.5949 24.01 12.2849 23.954 11.3279C23.9424 10.5702 23.7999 9.82013 23.533 9.11088ZM22.315 18.6429C22.3086 19.2192 22.2034 19.7901 22.004 20.3309C21.8538 20.7198 21.6239 21.0729 21.3291 21.3676C21.0342 21.6622 20.681 21.8919 20.292 22.0419C19.7572 22.2403 19.1924 22.3455 18.622 22.3529C17.672 22.3969 17.404 22.4079 14.968 22.4079C12.53 22.4079 12.281 22.4079 11.313 22.3529C10.7429 22.3459 10.1783 22.2407 9.64401 22.0419C9.2537 21.8929 8.89902 21.6636 8.6029 21.3688C8.30679 21.0741 8.07585 20.7205 7.92501 20.3309C7.72846 19.7959 7.62333 19.2317 7.61401 18.6619C7.57101 17.7119 7.56101 17.4439 7.56101 15.0079C7.56101 12.5709 7.56101 12.3219 7.61401 11.3529C7.62048 10.7769 7.72567 10.2063 7.92501 9.66588C8.23001 8.87688 8.85501 8.25588 9.64401 7.95388C10.1786 7.75602 10.743 7.65085 11.313 7.64288C12.264 7.59988 12.531 7.58788 14.968 7.58788C17.405 7.58788 17.655 7.58788 18.622 7.64288C19.1924 7.64974 19.7574 7.75495 20.292 7.95388C20.6809 8.10416 21.0342 8.33408 21.329 8.62891C21.6238 8.92374 21.8537 9.27695 22.004 9.66588C22.2006 10.2008 22.3057 10.765 22.315 11.3349C22.358 12.2859 22.369 12.5529 22.369 14.9899C22.369 17.4259 22.369 17.6879 22.326 18.6439H22.315V18.6429Z" fill="#B07DFB"/>
</svg>
