<svg width="71" height="70" viewBox="0 0 71 70" fill="none" xmlns="http://www.w3.org/2000/svg">
<path d="M12.5333 6C8.9349 6 6 8.9349 6 12.5333V58.2667C6 61.8651 8.9349 64.8 12.5333 64.8H58.2667C61.8651 64.8 64.8 61.8651 64.8 58.2667V12.5333C64.8 8.9349 61.8651 6 58.2667 6H12.5333ZM46.8333 20.7C48.4667 20.7 49.7938 22.0271 49.7938 23.6604C49.7938 25.2938 48.4667 26.6208 46.8333 26.6208C45.2 26.6208 43.8729 25.2938 43.8729 23.6604C43.8729 22.0271 45.2 20.7 46.8333 20.7ZM27.8458 22.0271H33.1542L41.9333 49.7938H35.7062L34.0729 44.1792H26.6208L24.9875 49.7938H19.0667L27.8458 22.0271ZM44.1792 29.1729H49.7938V49.7938H44.1792V29.1729ZM30.5 29.4792L27.8458 39.2792H33.1542L30.5 29.4792Z" fill="#626262"/>
</svg>
