<svg width="70" height="70" viewBox="0 0 70 70" fill="none" xmlns="http://www.w3.org/2000/svg">
<path d="M34.9 29.6221C37.7169 29.6221 40.0142 32.1901 40.0142 35.4C40.0142 38.4571 37.7169 41.0556 34.9 41.0556C32.0831 41.0556 29.7858 38.4571 29.7858 35.4C29.7858 32.1901 32.0831 29.6221 34.9 29.6221ZM22.2375 59.8566C23.9605 61.0183 27.7346 59.2452 32.0831 54.6596C30.6609 52.8559 29.2661 50.8994 27.9534 48.8511C25.7495 48.6154 23.5585 48.248 21.3897 47.7506C19.9949 54.2927 20.5145 58.7866 22.2375 59.8566ZM24.1793 42.309L23.3861 40.7499C23.0853 41.6364 22.7845 42.523 22.593 43.379C23.3314 43.5624 24.1519 43.7152 24.9997 43.8681L24.1793 42.309ZM42.0654 39.9856L44.2807 35.4L42.0654 30.8144C41.2449 29.1941 40.3698 27.7573 39.5767 26.3205C38.0998 26.2288 36.5409 26.2288 34.9 26.2288C33.2591 26.2288 31.7002 26.2288 30.2233 26.3205C29.4302 27.7573 28.5551 29.1941 27.7346 30.8144L25.5193 35.4L27.7346 39.9856C28.5551 41.6059 29.4302 43.0427 30.2233 44.4795C31.7002 44.5712 33.2591 44.5712 34.9 44.5712C36.5409 44.5712 38.0998 44.5712 39.5767 44.4795C40.3698 43.0427 41.2449 41.6059 42.0654 39.9856ZM34.9 19.4421C34.3804 20.1146 33.8334 20.8177 33.2864 21.6432H36.5136C35.9666 20.8177 35.4196 20.1146 34.9 19.4421ZM34.9 51.3579C35.4196 50.6854 35.9666 49.9823 36.5136 49.1568H33.2864C33.8334 49.9823 34.3804 50.6854 34.9 51.3579ZM47.5352 10.9434C45.8395 9.7817 42.0654 11.5548 37.7169 16.1404C39.1391 17.9441 40.5339 19.9006 41.8466 21.9489C44.0892 22.1934 46.3045 22.5603 48.4103 23.0494C49.8051 16.5073 49.2855 12.0134 47.5352 10.9434ZM45.6207 28.491L46.4139 30.0501C46.7147 29.1636 47.0155 28.277 47.207 27.421C46.4686 27.2376 45.6481 27.0848 44.8003 26.9319L45.6207 28.491ZM49.5863 6.93862C53.6066 9.50657 54.0442 16.2627 52.3486 24.15C59.2952 26.4428 64.3 30.2335 64.3 35.4C64.3 40.5665 59.2952 44.3572 52.3486 46.65C54.0442 54.5373 53.6066 61.2934 49.5863 63.8614C45.5934 66.4293 40.151 63.4945 34.9 57.9001C29.649 63.4945 24.2066 66.4293 20.1863 63.8614C16.1934 61.2934 15.7558 54.5373 17.4514 46.65C10.5048 44.3572 5.5 40.5665 5.5 35.4C5.5 30.2335 10.5048 26.4428 17.4514 24.15C15.7558 16.2627 16.1934 9.50657 20.1863 6.93862C24.2066 4.37068 29.649 7.30547 34.9 12.8999C40.151 7.30547 45.5934 4.37068 49.5863 6.93862ZM48.7932 35.4C49.7231 37.6928 50.5435 39.9856 51.2273 42.309C56.9705 40.383 60.1977 37.6317 60.1977 35.4C60.1977 33.1683 56.9705 30.417 51.2273 28.491C50.5435 30.8144 49.7231 33.1072 48.7932 35.4ZM21.0068 35.4C20.0769 33.1072 19.2565 30.8144 18.5727 28.491C12.8295 30.417 9.60233 33.1683 9.60233 35.4C9.60233 37.6317 12.8295 40.383 18.5727 42.309C19.2565 39.9856 20.0769 37.6928 21.0068 35.4ZM45.6207 42.309L44.8003 43.8681C45.6481 43.7152 46.4686 43.5624 47.207 43.379C47.0155 42.523 46.7147 41.6364 46.4139 40.7499L45.6207 42.309ZM37.7169 54.6596C42.0654 59.2452 45.8395 61.0183 47.5352 59.8566C49.2855 58.7866 49.8051 54.2927 48.4103 47.7506C46.3045 48.2397 44.0892 48.6066 41.8466 48.8511C40.5339 50.8994 39.1391 52.8559 37.7169 54.6596ZM24.1793 28.491L24.9997 26.9319C24.1519 27.0848 23.3314 27.2376 22.593 27.421C22.7845 28.277 23.0853 29.1636 23.3861 30.0501L24.1793 28.491ZM32.0831 16.1404C27.7346 11.5548 23.9605 9.7817 22.2375 10.9434C20.5145 12.0134 19.9949 16.5073 21.3897 23.0494C23.5585 22.552 25.7495 22.1846 27.9534 21.9489C29.2661 19.9006 30.6609 17.9441 32.0831 16.1404Z" fill="#626262"/>
</svg>
