<svg width="71" height="58" viewBox="0 0 71 58" fill="none" xmlns="http://www.w3.org/2000/svg">
<path d="M35.3854 23.4875C38.7758 23.4875 41.5408 25.9375 41.5408 29C41.5408 31.9167 38.7758 34.3958 35.3854 34.3958C31.995 34.3958 29.23 31.9167 29.23 29C29.23 25.9375 31.995 23.4875 35.3854 23.4875ZM20.145 52.3333C22.2188 53.4417 26.7613 51.75 31.995 47.375C30.2833 45.6542 28.6046 43.7875 27.0246 41.8333C24.372 41.6084 21.7349 41.2579 19.1246 40.7833C17.4458 47.025 18.0713 51.3125 20.145 52.3333ZM22.4821 35.5917L21.5275 34.1042C21.1654 34.95 20.8033 35.7958 20.5729 36.6125C21.4617 36.7875 22.4492 36.9333 23.4696 37.0792L22.4821 35.5917ZM44.0096 33.375L46.6758 29L44.0096 24.625C43.0221 23.0792 41.9688 21.7083 41.0142 20.3375C39.2367 20.25 37.3604 20.25 35.3854 20.25C33.4104 20.25 31.5342 20.25 29.7567 20.3375C28.8021 21.7083 27.7488 23.0792 26.7613 24.625L24.095 29L26.7613 33.375C27.7488 34.9208 28.8021 36.2917 29.7567 37.6625C31.5342 37.75 33.4104 37.75 35.3854 37.75C37.3604 37.75 39.2367 37.75 41.0142 37.6625C41.9688 36.2917 43.0221 34.9208 44.0096 33.375ZM35.3854 13.775C34.76 14.4167 34.1017 15.0875 33.4433 15.875H37.3275C36.6692 15.0875 36.0108 14.4167 35.3854 13.775ZM35.3854 44.225C36.0108 43.5833 36.6692 42.9125 37.3275 42.125H33.4433C34.1017 42.9125 34.76 43.5833 35.3854 44.225ZM50.5929 5.66666C48.5521 4.55833 44.0096 6.25 38.7758 10.625C40.4875 12.3458 42.1663 14.2125 43.7463 16.1667C46.4454 16.4 49.1117 16.75 51.6463 17.2167C53.325 10.975 52.6996 6.6875 50.5929 5.66666ZM48.2887 22.4083L49.2433 23.8958C49.6054 23.05 49.9675 22.2042 50.1979 21.3875C49.3092 21.2125 48.3217 21.0667 47.3013 20.9208L48.2887 22.4083ZM53.0617 1.84583C57.9004 4.29583 58.4271 10.7417 56.3862 18.2667C64.7471 20.4542 70.7708 24.0708 70.7708 29C70.7708 33.9292 64.7471 37.5458 56.3862 39.7333C58.4271 47.2583 57.9004 53.7042 53.0617 56.1542C48.2558 58.6042 41.7054 55.8042 35.3854 50.4667C29.0654 55.8042 22.515 58.6042 17.6763 56.1542C12.8704 53.7042 12.3438 47.2583 14.3846 39.7333C6.02375 37.5458 0 33.9292 0 29C0 24.0708 6.02375 20.4542 14.3846 18.2667C12.3438 10.7417 12.8704 4.29583 17.6763 1.84583C22.515 -0.60417 29.0654 2.19583 35.3854 7.53333C41.7054 2.19583 48.2558 -0.60417 53.0617 1.84583ZM52.1071 29C53.2262 31.1875 54.2137 33.375 55.0367 35.5917C61.9492 33.7542 65.8333 31.1292 65.8333 29C65.8333 26.8708 61.9492 24.2458 55.0367 22.4083C54.2137 24.625 53.2262 26.8125 52.1071 29ZM18.6638 29C17.5446 26.8125 16.5571 24.625 15.7342 22.4083C8.82167 24.2458 4.9375 26.8708 4.9375 29C4.9375 31.1292 8.82167 33.7542 15.7342 35.5917C16.5571 33.375 17.5446 31.1875 18.6638 29ZM48.2887 35.5917L47.3013 37.0792C48.3217 36.9333 49.3092 36.7875 50.1979 36.6125C49.9675 35.7958 49.6054 34.95 49.2433 34.1042L48.2887 35.5917ZM38.7758 47.375C44.0096 51.75 48.5521 53.4417 50.5929 52.3333C52.6996 51.3125 53.325 47.025 51.6463 40.7833C49.1117 41.25 46.4454 41.6 43.7463 41.8333C42.1663 43.7875 40.4875 45.6542 38.7758 47.375ZM22.4821 22.4083L23.4696 20.9208C22.4492 21.0667 21.4617 21.2125 20.5729 21.3875C20.8033 22.2042 21.1654 23.05 21.5275 23.8958L22.4821 22.4083ZM31.995 10.625C26.7613 6.25 22.2188 4.55833 20.145 5.66666C18.0713 6.6875 17.4458 10.975 19.1246 17.2167C21.7349 16.7421 24.372 16.3916 27.0246 16.1667C28.6046 14.2125 30.2833 12.3458 31.995 10.625Z" fill="black"/>
</svg>
