<svg width="123" height="96" viewBox="0 0 123 96" fill="none" xmlns="http://www.w3.org/2000/svg">
<g clip-path="url(#clip0)">
<path fill-rule="evenodd" clip-rule="evenodd" d="M12.6 30.14H109.37V68.03H12.6V30.14ZM52.58 38.5H59.4V51.65C59.4 52.95 59.19 54.18 58.79 55.34C58.38 56.5 57.75 57.51 56.88 58.38C56.01 59.25 55.1 59.86 54.15 60.21C52.82 60.7 51.23 60.95 49.37 60.95C48.3 60.95 47.12 60.87 45.85 60.72C44.58 60.57 43.52 60.27 42.66 59.83C41.81 59.38 41.02 58.75 40.32 57.93C39.61 57.11 39.13 56.26 38.87 55.39C38.45 53.99 38.24 52.74 38.24 51.66V38.5H45.06V51.97C45.06 53.17 45.39 54.11 46.06 54.79C46.73 55.47 47.65 55.81 48.84 55.81C50.01 55.81 50.93 55.48 51.6 54.81C52.26 54.15 52.6 53.2 52.6 51.98V38.5H52.58ZM62.39 38.5H69.92L73.83 45.3L77.63 38.5H85.06L78.2 49.2L85.71 60.59H78.03L73.7 53.5L69.34 60.59H61.72L69.33 49.08L62.39 38.5ZM8.32 0H114.56C119.14 0 122.88 3.74 122.88 8.32V87.19C122.88 91.76 119.14 95.51 114.56 95.51H8.32C3.74 95.51 0 91.77 0 87.19V8.32C0 3.74 3.74 0 8.32 0ZM117.97 23.29H5.29V88C5.29 88.64 5.54 89.2 5.96 89.63C6.39 90.05 6.95 90.3 7.59 90.3H115.63C116.27 90.3 116.83 90.05 117.26 89.63C117.69 89.2 117.93 88.64 117.93 88V23.29H117.97ZM106.64 9.35C108.91 9.35 110.75 11.19 110.75 13.46C110.75 15.73 108.91 17.57 106.64 17.57C104.37 17.57 102.53 15.73 102.53 13.46C102.54 11.19 104.38 9.35 106.64 9.35ZM78.8 9.35C81.07 9.35 82.91 11.19 82.91 13.46C82.91 15.73 81.07 17.57 78.8 17.57C76.53 17.57 74.69 15.73 74.69 13.46C74.69 11.19 76.53 9.35 78.8 9.35ZM92.72 9.35C94.99 9.35 96.83 11.19 96.83 13.46C96.83 15.73 94.99 17.57 92.72 17.57C90.45 17.57 88.61 15.73 88.61 13.46C88.61 11.19 90.45 9.35 92.72 9.35ZM66.87 83.68C65.09 83.68 63.65 82.11 63.65 80.18C63.65 78.24 65.09 76.68 66.87 76.68H106.52C108.3 76.68 109.74 78.25 109.74 80.18C109.74 82.12 108.3 83.68 106.52 83.68H66.87ZM14.96 83.68C13.2 83.68 11.77 82.11 11.77 80.18C11.77 78.24 13.2 76.68 14.96 76.68H51.72C53.48 76.68 54.91 78.25 54.91 80.18C54.91 82.12 53.48 83.68 51.72 83.68H14.96Z" fill="black"/>
</g>
<defs>
<clipPath id="clip0">
<rect width="122.88" height="95.51" fill="white"/>
</clipPath>
</defs>
</svg>
