<svg width="128" height="100" viewBox="0 0 128 100" fill="none" xmlns="http://www.w3.org/2000/svg">
<path fill-rule="evenodd" clip-rule="evenodd" d="M13.0696 31.2634H113.447V70.5657H13.0696V31.2634ZM54.5398 39.935H61.614V53.5752C61.614 54.9236 61.3962 56.1995 60.9813 57.4027C60.556 58.606 59.9025 59.6536 59.0001 60.556C58.0977 61.4585 57.1538 62.0912 56.1684 62.4542C54.7888 62.9625 53.1395 63.2218 51.2102 63.2218C50.1003 63.2218 48.8763 63.1388 47.559 62.9832C46.2417 62.8277 45.1421 62.5165 44.2501 62.0601C43.3684 61.5933 42.549 60.9398 41.8229 60.0893C41.0864 59.2387 40.5885 58.357 40.3188 57.4546C39.8832 56.0024 39.6653 54.7058 39.6653 53.5855V39.935H46.7395V53.9071C46.7395 55.1518 47.0818 56.1269 47.7768 56.8322C48.4718 57.5376 49.4261 57.8902 50.6604 57.8902C51.8741 57.8902 52.8283 57.5479 53.5233 56.853C54.2079 56.1684 54.5606 55.183 54.5606 53.9175V39.935H54.5398ZM64.7155 39.935H72.5262L76.5819 46.9885L80.5235 39.935H88.2305L81.1148 51.0339L88.9047 62.8484H80.9385L76.4471 55.4941L71.9245 62.8484H64.0205L71.9142 50.9094L64.7155 39.935ZM8.63012 0H118.83C123.581 0 127.46 3.8794 127.46 8.63012V90.4399C127.46 95.1802 123.581 99.07 118.83 99.07H8.63012C3.8794 99.07 0 95.1906 0 90.4399V8.63012C0 3.8794 3.8794 0 8.63012 0ZM122.367 24.1581H5.48718V91.2801C5.48718 91.9439 5.7465 92.5248 6.18215 92.9708C6.62818 93.4065 7.20905 93.6658 7.87291 93.6658H119.94C120.604 93.6658 121.185 93.4065 121.631 92.9708C122.077 92.5248 122.326 91.9439 122.326 91.2801V24.1581H122.367ZM110.615 9.69851C112.969 9.69851 114.878 11.6071 114.878 13.9617C114.878 16.3163 112.969 18.2249 110.615 18.2249C108.26 18.2249 106.352 16.3163 106.352 13.9617C106.362 11.6071 108.271 9.69851 110.615 9.69851ZM81.7372 9.69851C84.0918 9.69851 86.0004 11.6071 86.0004 13.9617C86.0004 16.3163 84.0918 18.2249 81.7372 18.2249C79.3825 18.2249 77.474 16.3163 77.474 13.9617C77.474 11.6071 79.3825 9.69851 81.7372 9.69851ZM96.176 9.69851C98.5306 9.69851 100.439 11.6071 100.439 13.9617C100.439 16.3163 98.5306 18.2249 96.176 18.2249C93.8214 18.2249 91.9128 16.3163 91.9128 13.9617C91.9128 11.6071 93.8214 9.69851 96.176 9.69851ZM69.3625 86.799C67.5161 86.799 66.0225 85.1705 66.0225 83.1686C66.0225 81.1563 67.5161 79.5381 69.3625 79.5381H110.49C112.337 79.5381 113.83 81.1667 113.83 83.1686C113.83 85.1809 112.337 86.799 110.49 86.799H69.3625ZM15.5176 86.799C13.692 86.799 12.2087 85.1705 12.2087 83.1686C12.2087 81.1563 13.692 79.5381 15.5176 79.5381H53.6478C55.4734 79.5381 56.9567 81.1667 56.9567 83.1686C56.9567 85.1809 55.4734 86.799 53.6478 86.799H15.5176Z" fill="#B07DFB"/>
</svg>
