<svg width="51" height="50" viewBox="0 0 51 50" fill="none" xmlns="http://www.w3.org/2000/svg">
<path d="M36.3307 2.01171C35.9422 2.02533 35.5547 2.12658 35.2077 2.30858C36.1127 2.75658 36.7511 3.64139 36.8561 4.69139C36.8741 4.81739 36.8854 4.93227 36.8854 4.98827V44.9883C36.8854 46.1743 36.192 47.1907 35.194 47.6777C35.558 47.8767 35.9644 47.9883 36.3854 47.9883C36.7584 47.9883 37.1104 47.9018 37.4284 47.7558L37.4303 47.7598C39.0383 46.9278 47.0777 42.7647 47.3737 42.5957C48.3067 42.0607 48.8854 41.0613 48.8854 39.9883V9.98827C48.8854 8.99027 48.3911 8.06189 47.5631 7.50389C47.2431 7.28689 37.4674 2.23632 37.4674 2.23632L37.4655 2.24022C37.1095 2.07272 36.7192 1.99808 36.3307 2.01171ZM33.8854 3.98827C33.6295 3.98827 33.3734 4.08574 33.1784 4.28124C33.1784 4.28124 27.4539 10.7188 21.1159 17.8398L28.61 23.9707L34.8854 18.6855V4.98827C34.8854 4.73227 34.7874 4.47624 34.5924 4.28124C34.3969 4.08574 34.1413 3.98827 33.8854 3.98827ZM8.88541 10.9883C8.72941 10.9883 8.43927 10.9888 7.14127 11.5898C6.42627 11.9208 3.93619 13.2285 3.93619 13.2285C3.60619 13.4075 3.33998 13.6877 3.15298 14.0117C3.22898 13.9997 3.30445 13.9883 3.38345 13.9883H3.38541C4.05341 13.9883 4.46306 14.4545 4.60806 14.6055C4.60806 14.6055 32.8154 45.3323 33.1784 45.6953C33.3734 45.8903 33.6275 45.9883 33.8835 45.9883C34.1395 45.9883 34.3955 45.8903 34.5905 45.6953C34.7855 45.5003 34.8854 45.2443 34.8854 44.9883V31.6582C34.8854 31.6582 10.4192 11.6618 10.2292 11.5078C9.86116 11.1738 9.38241 10.9883 8.88541 10.9883ZM3.08463 15.9883C2.97463 15.9883 2.88541 16.0784 2.88541 16.1894V34.7949C2.88541 34.9019 2.97272 34.9902 3.08072 34.9902C3.13672 34.9902 3.18634 34.9648 3.22134 34.9258L8.88541 28.6387V22.0078L3.2272 16.0469C3.1912 16.0109 3.13963 15.9883 3.08463 15.9883ZM13.1393 26.8027C13.1393 26.8027 4.54395 36.4528 4.44595 36.5508C4.17495 36.8218 3.80041 36.9883 3.38541 36.9883C3.30741 36.9883 3.23189 36.9788 3.15689 36.9668C3.35889 37.3178 3.65513 37.6071 4.02213 37.7851L4.01822 37.791C4.88822 38.233 7.75936 39.6917 8.13736 39.8457C8.37536 39.9407 8.62641 39.9883 8.88541 39.9883C9.23241 39.9883 9.57545 39.8986 9.88345 39.7226C9.90645 39.7096 18.4128 32.5527 18.4128 32.5527L13.1393 26.8027Z" fill="black"/>
</svg>
