<svg width="20" height="19" viewBox="0 0 20 19" fill="none" xmlns="http://www.w3.org/2000/svg">
<path d="M14.809 10.4574L12.878 9.94398C12.7534 9.91059 12.6215 9.90909 12.496 9.93964C12.3706 9.97018 12.2563 10.0316 12.165 10.1176L11.693 10.5638C11.5954 10.6561 11.4707 10.7195 11.3346 10.7461C11.1986 10.7726 11.0571 10.7612 10.928 10.7131C10.015 10.3705 8.09304 8.78748 7.60204 7.99502C7.53321 7.88309 7.50177 7.75453 7.51175 7.62581C7.52173 7.49709 7.57267 7.37408 7.65804 7.27257L8.07004 6.77786C8.14935 6.68308 8.19954 6.56993 8.21522 6.45055C8.2309 6.33118 8.21148 6.21007 8.15904 6.10021L7.34704 4.39767C7.30112 4.30251 7.23217 4.21859 7.14563 4.15251C7.05908 4.08643 6.95729 4.03998 6.84827 4.01682C6.73924 3.99366 6.62594 3.99443 6.51728 4.01905C6.40863 4.04367 6.30757 4.09148 6.22205 4.15872C5.68305 4.58155 5.04306 5.2228 4.96606 5.93499C4.82906 7.18856 5.40905 8.76882 7.60304 10.6674C10.138 12.8599 12.169 13.1502 13.49 12.8525C14.24 12.6845 14.84 12.0096 15.217 11.458C15.2773 11.3703 15.3147 11.2707 15.3263 11.1672C15.3378 11.0636 15.3231 10.9589 15.2834 10.8616C15.2438 10.7642 15.1802 10.677 15.0978 10.6068C15.0154 10.5366 14.9164 10.4854 14.809 10.4574Z" fill="#F5F5F5"/>
<path d="M9.48305 0.0117165C4.17305 0.245068 -0.0159543 4.34272 4.56812e-05 9.26831C0.00267628 10.7182 0.374569 12.1467 1.08505 13.436L0.0270456 18.1973C0.0141366 18.2568 0.0175168 18.3184 0.0368735 18.3764C0.0562302 18.4344 0.0909383 18.4869 0.137789 18.529C0.184639 18.5712 0.242119 18.6016 0.304913 18.6175C0.367707 18.6335 0.433788 18.6343 0.497046 18.6201L5.53105 17.515C6.86433 18.1299 8.328 18.4591 9.81505 18.4782C15.242 18.5557 19.7661 14.5626 19.935 9.53619C20.1171 4.14577 15.318 -0.246837 9.48305 0.0107829V0.0117165ZM15.4901 14.3554C14.7645 15.0301 13.9035 15.5647 12.9563 15.9282C12.009 16.2918 10.9942 16.4774 9.97005 16.4742C8.76506 16.4776 7.57573 16.2194 6.49605 15.72L5.79505 15.3961L2.70805 16.0738L3.35805 13.1513L3.01205 12.524C2.45115 11.5092 2.16028 10.3832 2.16405 9.24124C2.16405 7.30909 2.97605 5.49174 4.45005 4.12617C5.91924 2.76872 7.9028 2.007 9.97005 2.00641C12.056 2.00641 14.0161 2.75873 15.4901 4.12524C16.2163 4.79322 16.7925 5.58961 17.1852 6.46787C17.5779 7.34613 17.7791 8.28863 17.777 9.2403C17.777 11.1557 16.9521 13.0019 15.4901 14.3563V14.3554Z" fill="#F5F5F5"/>
</svg>
